<svg width="140" height="26" viewBox="0 0 140 26" fill="none" xmlns="http://www.w3.org/2000/svg"><path fill-rule="evenodd" clip-rule="evenodd" d="M34.3025 7.95426C33.8355 8.0862 33.3992 8.30901 33.0188 8.60987C32.6572 8.90247 32.37 9.27614 32.1804 9.70049C31.9729 10.1779 31.8709 10.6943 31.8814 11.2145V11.5046C31.881 11.5787 31.8889 11.6527 31.9049 11.725H33.8519V11.4466C33.852 11.2057 33.8835 10.9659 33.9456 10.7331C34.0063 10.5009 34.1142 10.2837 34.2625 10.095C34.4209 9.89768 34.6238 9.74061 34.8546 9.6366C35.1488 9.51113 35.467 9.45172 35.7867 9.46257C36.1252 9.45183 36.4628 9.5029 36.7828 9.61325C37.0148 9.69345 37.2215 9.83327 37.382 10.0186C37.5426 10.204 37.6514 10.4283 37.6974 10.6691C37.7544 10.9399 37.7818 11.2161 37.7794 11.4928V13.1051C36.9284 13.1009 36.0781 13.1571 35.2351 13.2734C34.5276 13.3624 33.8411 13.5745 33.2068 13.8999C32.6503 14.192 32.1872 14.6342 31.8702 15.1762C31.5496 15.7214 31.3893 16.4234 31.3894 17.2819C31.3818 17.7241 31.4351 18.1652 31.5477 18.5928C31.6373 18.9285 31.78 19.2477 31.9703 19.5385C32.1343 19.7854 32.3407 20.0014 32.58 20.1766C32.7993 20.337 33.04 20.4659 33.2951 20.5595C33.5324 20.6461 33.778 20.7083 34.028 20.7451C34.2532 20.7786 34.4804 20.7961 34.7081 20.7973C35.3308 20.8073 35.946 20.6597 36.4961 20.368C37.0217 20.0839 37.4641 19.668 37.7798 19.1614H37.8971C38.006 19.5999 38.2525 19.9923 38.6006 20.2811C38.9664 20.5708 39.4237 20.7209 39.8904 20.7045C40.163 20.7102 40.4351 20.679 40.6993 20.6117C40.8699 20.5684 41.0351 20.5062 41.1918 20.426V19.0685H40.4296C40.2545 19.0673 40.0866 18.9988 39.9607 18.8772C39.8198 18.7496 39.7494 18.5387 39.7494 18.2443V11.2377C39.7494 10.1317 39.4328 9.27126 38.7996 8.65628C38.1665 8.04131 37.2129 7.73382 35.9389 7.73382C35.3856 7.72823 34.8345 7.80247 34.3025 7.95426ZM37.7789 15.9831C37.7887 16.4464 37.7091 16.9072 37.5446 17.3405C37.4066 17.6984 37.1994 18.0256 36.9348 18.3035C36.6975 18.55 36.4122 18.7455 36.0964 18.8779C35.8015 19.0027 35.4846 19.0677 35.1643 19.0693C34.6092 19.0693 34.1871 18.9301 33.8981 18.6516C33.609 18.3732 33.4644 17.8781 33.4643 17.1665C33.445 16.7488 33.5558 16.3354 33.7812 15.9831C34.0057 15.6704 34.312 15.4254 34.6666 15.2749C35.0993 15.091 35.5582 14.9756 36.0265 14.9327C36.6088 14.8719 37.194 14.8428 37.7794 14.8456V15.9826L37.7789 15.9831ZM44.849 19.0693C45.1099 19.6019 45.5138 20.0518 46.0157 20.3688C46.4932 20.6618 47.0438 20.8146 47.6043 20.8096C48.1683 20.8186 48.7259 20.6892 49.2283 20.4329C49.7359 20.1562 50.1607 19.7497 50.4593 19.2552C50.837 18.6249 51.1025 17.934 51.2442 17.2132C51.4423 16.2359 51.5346 15.2401 51.5196 14.243C51.5352 13.2566 51.4369 12.2716 51.2265 11.3076C51.0735 10.5929 50.802 9.90865 50.4234 9.28311C50.1287 8.79715 49.7152 8.39392 49.2216 8.11128C48.7692 7.86234 48.2607 7.73269 47.7442 7.73458C47.175 7.72493 46.6125 7.85863 46.1086 8.12333C45.6492 8.36038 45.2805 8.74155 45.0592 9.20822H44.942V3.33594H42.973V20.5196H44.462L44.72 19.0693H44.849ZM49.4569 14.7184C49.4653 15.3864 49.4182 16.0539 49.3161 16.714C49.2482 17.1823 49.1055 17.6367 48.8935 18.0599C48.7346 18.3772 48.4886 18.6428 48.1842 18.8256C47.8811 18.9925 47.5393 19.0766 47.1933 19.0693C46.4351 19.0693 45.8704 18.7058 45.4992 17.9787C45.128 17.2516 44.9423 16.1648 44.9421 14.7184V13.9179C44.9421 10.9555 45.6925 9.47427 47.1933 9.47417C47.5393 9.4669 47.8811 9.55095 48.1842 9.71782C48.4886 9.90067 48.7346 10.1663 48.8935 10.4836C49.1054 10.9068 49.2481 11.3612 49.3161 11.8294C49.4179 12.4857 49.465 13.1494 49.4569 13.8134V14.7184ZM61.3691 8.02388H53.4908V9.76423H58.6614L53.1038 19.5914V20.5196H61.6746V18.7908H55.8006L61.3697 8.91726V8.02388H61.3691ZM66.2701 17.9439H63.8666V20.5196H66.2701V17.9439ZM71.5286 7.95381C71.0616 8.08575 70.6253 8.30856 70.2448 8.60942C69.8833 8.90202 69.596 9.27569 69.4065 9.70004C69.199 10.1774 69.097 10.6938 69.1075 11.2141V11.5041C69.107 11.5783 69.1149 11.6522 69.131 11.7246H71.0772V11.4461C71.0773 11.2052 71.1089 10.9654 71.1711 10.7326C71.2318 10.5005 71.3397 10.2833 71.488 10.0945C71.6465 9.89726 71.8494 9.7402 72.0802 9.63615C72.3744 9.51068 72.6926 9.45127 73.0124 9.46212C73.3508 9.45138 73.6884 9.50245 74.0085 9.6128C74.2404 9.69296 74.4471 9.83278 74.6076 10.0182C74.7682 10.2035 74.8769 10.4279 74.9229 10.6686C74.98 10.9394 75.0075 11.2156 75.005 11.4924V13.1046C74.154 13.1004 73.3037 13.1567 72.4607 13.273C71.7532 13.362 71.0667 13.574 70.4324 13.8995C69.876 14.1915 69.4128 14.6337 69.0959 15.1757C68.7752 15.721 68.6149 16.4229 68.615 17.2815C68.6074 17.7236 68.6607 18.1647 68.7733 18.5924C68.8629 18.928 69.0056 19.2473 69.1959 19.5381C69.3599 19.7849 69.5663 20.0009 69.8055 20.1762C70.0249 20.3365 70.2656 20.4654 70.5207 20.5591C70.7581 20.6457 71.0036 20.7079 71.2536 20.7447C71.4788 20.7782 71.7061 20.7956 71.9337 20.7968C72.5565 20.8069 73.1716 20.6592 73.7217 20.3675C74.2473 20.0834 74.6897 19.6675 75.0055 19.1609H75.1227C75.2316 19.5995 75.4781 19.9918 75.8262 20.2806C76.1921 20.5703 76.6493 20.7204 77.116 20.704C77.3886 20.7097 77.6607 20.6785 77.925 20.6112C78.0956 20.568 78.2608 20.5057 78.4174 20.4256V19.0681H77.6553C77.4801 19.0669 77.3122 18.9984 77.1863 18.8767C77.0455 18.7491 76.975 18.5382 76.975 18.2439V11.2377C76.975 10.1317 76.6585 9.27126 76.0254 8.65628C75.3923 8.04131 74.4387 7.73382 73.1646 7.73382C72.6115 7.72825 72.0605 7.8025 71.5286 7.95426V7.95381ZM75.005 15.9826C75.0148 16.4459 74.9352 16.9068 74.7706 17.3401C74.6327 17.6979 74.4255 18.0252 74.1609 18.3031C73.9236 18.5496 73.6383 18.7451 73.3225 18.8775C73.0276 19.0022 72.7107 19.0673 72.3904 19.0688C71.8353 19.0688 71.4132 18.9296 71.1241 18.6512C70.8351 18.3727 70.6905 17.8777 70.6904 17.1661C70.6711 16.7484 70.7818 16.335 71.0073 15.9826C71.2318 15.6699 71.538 15.4249 71.8926 15.2744C72.3254 15.0906 72.7842 14.9751 73.2526 14.9322C73.8349 14.8714 74.42 14.8423 75.0055 14.8451V15.9822L75.005 15.9826ZM87.4919 5.99257C87.4609 6.19272 87.4158 6.39044 87.357 6.58429C87.2945 6.78637 87.2058 6.97946 87.0933 7.15868C86.9661 7.36012 86.8123 7.54354 86.636 7.70399C86.424 7.89494 86.1874 8.05684 85.9326 8.18541C85.657 8.04249 85.3658 7.93157 85.0649 7.85482C84.7548 7.77392 84.4356 7.73295 84.1151 7.73292C83.5259 7.72416 82.9399 7.82245 82.3858 8.02298C81.8957 8.20233 81.4512 8.48758 81.0843 8.85834C80.7203 9.2354 80.4422 9.68661 80.2693 10.181C80.0738 10.7479 79.9786 11.3445 79.988 11.944C79.9748 12.5859 80.107 13.2225 80.3748 13.8062C80.6267 14.3361 80.9955 14.8022 81.4536 15.1694C80.9569 15.3349 80.5108 15.6245 80.1579 16.0106C79.8355 16.3728 79.6617 16.843 79.6713 17.3274C79.6701 17.7021 79.7628 18.071 79.941 18.4007C80.1172 18.7335 80.3806 19.0122 80.7032 19.207C80.4535 19.2996 80.2229 19.4372 80.0231 19.6131C79.8204 19.7903 79.6464 19.9977 79.5073 20.228C79.3626 20.4688 79.2521 20.7285 79.1788 20.9997C79.1003 21.285 79.0609 21.5796 79.0617 21.8755C79.0588 22.2692 79.1263 22.6601 79.2609 23.0301C79.3897 23.3832 79.5914 23.7053 79.853 23.9756C80.1297 24.256 80.4636 24.4736 80.8321 24.6137C81.2667 24.7761 81.7282 24.8548 82.1922 24.8457H85.7682C86.3089 24.8553 86.8463 24.7608 87.3511 24.5673C87.786 24.3989 88.1812 24.1423 88.5119 23.8139C88.8263 23.4937 89.0682 23.11 89.2212 22.6885C89.3837 22.2423 89.4651 21.7709 89.4617 21.2962C89.4638 20.9135 89.3942 20.5338 89.2565 20.1766C89.1235 19.8307 88.9221 19.515 88.6643 19.2485C88.3981 18.9759 88.079 18.7606 87.7265 18.6156C87.3359 18.4565 86.9172 18.3776 86.4954 18.3836H82.8841C82.7331 18.3847 82.5835 18.3551 82.4444 18.2966C82.3087 18.2394 82.1854 18.1567 82.081 18.053C81.9758 17.9493 81.8904 17.8274 81.8289 17.6933C81.766 17.5569 81.7339 17.4083 81.7351 17.2581C81.7339 17.1108 81.763 16.9648 81.8205 16.8292C81.8779 16.6935 81.9626 16.571 82.0692 16.4692C82.1749 16.3686 82.2981 16.288 82.4326 16.2314C82.5756 16.1721 82.7292 16.1425 82.8841 16.1443H84.209C84.7762 16.1447 85.3387 16.0405 85.868 15.8369C86.3465 15.6515 86.7801 15.3668 87.1401 15.0015C87.5023 14.6253 87.7801 14.1763 87.9551 13.6846C88.1533 13.1261 88.2504 12.5368 88.2419 11.9443C88.252 11.3732 88.1504 10.8057 87.9429 10.2735C87.7518 9.79915 87.4712 9.36587 87.1163 8.99727C87.4329 8.91757 87.7326 8.78205 88.0015 8.59707C88.2624 8.4163 88.4887 8.19033 88.6698 7.92986C88.8571 7.65928 88.9978 7.3593 89.086 7.04235C89.1816 6.70056 89.229 6.34712 89.2267 5.99227H87.4916L87.4919 5.99257ZM85.9794 20.2411C86.2052 20.2356 86.4301 20.273 86.6419 20.3514C86.8168 20.4191 86.9748 20.524 87.105 20.6588C87.2304 20.791 87.3246 20.9496 87.3806 21.1229C87.44 21.3065 87.4697 21.4984 87.4684 21.6914C87.4696 21.8864 87.4317 22.0797 87.357 22.2599C87.2837 22.4361 87.176 22.5958 87.0401 22.7299C86.9032 22.865 86.7422 22.9732 86.5653 23.0489C86.3799 23.1273 86.1803 23.1668 85.9789 23.1649H82.4972C82.2786 23.1693 82.0613 23.1299 81.8582 23.0489C81.6838 22.978 81.5275 22.869 81.4009 22.7299C81.2788 22.593 81.1851 22.4333 81.1253 22.2599C81.062 22.0771 81.0303 21.8849 81.0316 21.6914C81.0303 21.4984 81.06 21.3065 81.1194 21.1229C81.1748 20.9506 81.2668 20.7923 81.3891 20.6588C81.5164 20.5232 81.6727 20.4181 81.8464 20.3514C82.0544 20.2736 82.2752 20.2362 82.4972 20.2411H85.9794ZM85.698 10.0138C86.0654 10.4586 86.2491 11.1025 86.2491 11.9455C86.2491 12.7423 86.0654 13.3707 85.698 13.8309C85.3307 14.2911 84.7953 14.5212 84.0917 14.5212C83.3882 14.5212 82.8567 14.3007 82.4972 13.8599C82.1377 13.419 81.9579 12.7811 81.9578 11.9462C81.9578 11.1419 82.1376 10.5076 82.4972 10.0434C82.8568 9.57925 83.3883 9.3472 84.0917 9.3473C84.7952 9.3468 85.3306 9.56895 85.698 10.0138ZM91.9063 9.32334C91.1128 10.3832 90.716 12.0307 90.7161 14.2656C90.699 15.2662 90.8014 16.2653 91.021 17.2417C91.1822 17.9732 91.4915 18.6642 91.9297 19.2721C92.313 19.7871 92.8296 20.1882 93.4239 20.4323C94.0812 20.6876 94.7823 20.8117 95.4875 20.7977C96.0654 20.8052 96.6391 20.6987 97.1757 20.4845C97.6721 20.2837 98.1183 19.9768 98.483 19.5854C98.8598 19.1727 99.1472 18.6869 99.3273 18.1583C99.5347 17.5476 99.6358 16.906 99.6263 16.2612H97.6794C97.6845 16.6575 97.6311 17.0523 97.521 17.4331C97.4293 17.7541 97.2782 18.0551 97.0755 18.3207C96.8952 18.5574 96.6618 18.7484 96.3939 18.8784C96.1261 19.0083 95.8314 19.0736 95.5337 19.069C94.6035 19.069 93.9137 18.7287 93.4643 18.048C93.015 17.3673 92.7863 16.2999 92.7784 14.8457H99.6257V13.6043C99.6405 12.7038 99.5519 11.8046 99.3619 10.9242C99.2251 10.2715 98.9601 9.65238 98.5822 9.10259C98.2531 8.64283 97.8025 8.28336 97.2808 8.06426C96.7032 7.83373 96.0852 7.72126 95.4633 7.73352C93.8853 7.73372 92.6996 8.26366 91.9063 9.32334ZM97.0299 10.385C97.3855 10.9999 97.5634 11.9068 97.5635 13.1057H92.8033C92.8391 12.5717 92.9215 12.0418 93.0494 11.5221C93.1458 11.1172 93.3124 10.7324 93.5419 10.385C93.741 10.09 94.0138 9.852 94.3334 9.69462C94.6879 9.53183 95.0752 9.45244 95.4653 9.46257C95.7867 9.45343 96.1041 9.53518 96.381 9.6984C96.6579 9.86161 96.8829 10.0996 97.0301 10.385H97.0299ZM105.313 8.13418C104.753 8.43709 104.296 8.8995 104 9.46257H103.86L103.59 8.02388H102.101V20.5196H104.071V12.8969C104.064 12.4066 104.129 11.9179 104.264 11.4466C104.374 11.0605 104.549 10.6957 104.78 10.3676C104.976 10.0912 105.23 9.86142 105.525 9.69462C105.797 9.54244 106.103 9.46253 106.415 9.46257C106.661 9.45987 106.906 9.49312 107.142 9.56126C107.357 9.62498 107.552 9.74517 107.705 9.90933C107.876 10.1029 108 10.3331 108.068 10.5823C108.163 10.9319 108.206 11.2934 108.197 11.6554V20.5196H110.167V11.5162C110.18 10.9208 110.105 10.3267 109.944 9.75323C109.822 9.32213 109.608 8.92242 109.317 8.5814C109.053 8.28355 108.715 8.05961 108.338 7.93166C107.922 7.79508 107.486 7.72843 107.048 7.73443C106.446 7.72717 105.851 7.86426 105.313 8.13418ZM113.527 9.32334C112.827 10.3832 112.477 12.0307 112.477 14.2656C112.464 15.2426 112.55 16.2184 112.735 17.1778C112.868 17.8993 113.134 18.5898 113.52 19.2141C113.847 19.7298 114.312 20.1438 114.863 20.4091C115.468 20.6812 116.127 20.814 116.791 20.7977C117.41 20.8157 118.022 20.678 118.573 20.3975C119.055 20.14 119.468 19.7698 119.775 19.3185C120.094 18.8421 120.323 18.3112 120.449 17.7522C120.593 17.1379 120.664 16.5091 120.661 15.8784H118.714C118.718 16.3367 118.685 16.7946 118.614 17.2474C118.563 17.5964 118.452 17.9339 118.286 18.2452C118.148 18.5016 117.941 18.7145 117.688 18.8602C117.412 19.0065 117.103 19.0785 116.791 19.069C115.994 19.069 115.419 18.7055 115.067 17.9784C114.716 17.2513 114.54 16.1684 114.539 14.7297V13.8131C114.539 12.3666 114.719 11.2799 115.079 10.5529C115.438 9.82591 116.009 9.46237 116.79 9.46227C117.096 9.45149 117.399 9.51942 117.67 9.65951C117.911 9.79808 118.106 10.0037 118.232 10.2512C118.388 10.5625 118.489 10.898 118.531 11.2433C118.595 11.7105 118.624 12.1815 118.619 12.6529H120.66C120.669 11.9431 120.596 11.2345 120.443 10.5413C120.323 9.98535 120.089 9.46006 119.757 8.99817C119.447 8.58268 119.032 8.25647 118.555 8.05266C117.995 7.82653 117.394 7.7179 116.79 7.73352C115.314 7.73372 114.226 8.26366 113.526 9.32334H113.527ZM131.097 8.02388H129.091L126.735 17.7126H126.642L123.851 8.02388H121.693L125.562 20.5196C125.469 20.9794 125.324 21.4271 125.128 21.8538C124.983 22.1712 124.785 22.4616 124.542 22.7127C124.344 22.9156 124.104 23.0721 123.839 23.1711C123.59 23.2596 123.328 23.3047 123.065 23.3044H122.373V24.6503C122.583 24.7291 122.801 24.7818 123.024 24.807C123.275 24.8351 123.527 24.8487 123.78 24.8476C124.298 24.8575 124.808 24.7208 125.251 24.4531C125.693 24.1749 126.076 23.8121 126.377 23.3857C126.724 22.8961 127.009 22.3662 127.227 21.8077C127.478 21.1783 127.693 20.5353 127.872 19.8818L131.097 8.02388Z" fill="white"></path><path fill-rule="evenodd" clip-rule="evenodd" d="M11.2407 17.6286L12.5991 15.569L12.6049 15.578L21.2549 2.44844H3.95514L8.00626 8.59767L6.65684 10.6436L0 0.5H25.18L12.59 19.6847L11.2407 17.6286ZM13.9394 8.37135L12.5811 10.431L12.5752 10.4221L3.92525 23.5516H21.2249L17.1737 17.4025L18.5233 15.3564L25.18 25.5H0L12.5902 6.31533L13.9394 8.37135Z" fill="white"></path><path d="M136.541 2.625C136.908 2.625 137.197 2.7145 137.407 2.8935C137.617 3.07249 137.722 3.31282 137.722 3.61446C137.722 3.93599 137.617 4.18294 137.407 4.35531C137.197 4.52437 136.91 4.60889 136.546 4.60889L136.477 4.64867H135.778V5.90663H135.109V2.625H136.541ZM136.462 4.12659C136.652 4.12659 136.793 4.08847 136.885 4.01223C136.98 3.93268 137.028 3.81169 137.028 3.64927C137.028 3.48684 136.98 3.36751 136.885 3.29127C136.793 3.21172 136.652 3.17194 136.462 3.17194H135.778V4.12659H136.462ZM136.861 4.27079L137.913 5.90663H137.151L136.28 4.46967L136.861 4.27079Z" fill="white"></path><path fill-rule="evenodd" clip-rule="evenodd" d="M136.274 7.32866C137.998 7.32866 139.396 5.93489 139.396 4.21559C139.396 2.49629 137.998 1.10253 136.274 1.10253C134.549 1.10253 133.151 2.49629 133.151 4.21559C133.151 5.93489 134.549 7.32866 136.274 7.32866ZM136.274 7.93118C138.332 7.93118 140.001 6.26766 140.001 4.21559C140.001 2.16353 138.332 0.5 136.274 0.5C134.215 0.5 132.547 2.16353 132.547 4.21559C132.547 6.26766 134.215 7.93118 136.274 7.93118Z" fill="white"></path></svg>